<svg width="90" height="90" viewBox="0 0 90 90" fill="none" xmlns="http://www.w3.org/2000/svg"><g opacity="0.85"><path d="M83.3333 45C83.3333 66.1709 66.1709 83.3334 45 83.3334C23.8291 83.3334 6.66666 66.1709 6.66666 45C6.66666 23.8291 23.8291 6.66669 45 6.66669C66.1709 6.66669 83.3333 23.8291 83.3333 45Z" fill="white"/><path d="M83.3333 45C83.3333 66.1709 66.1709 83.3334 45 83.3334C23.8291 83.3334 6.66666 66.1709 6.66666 45C6.66666 23.8291 23.8291 6.66669 45 6.66669C66.1709 6.66669 83.3333 23.8291 83.3333 45Z" fill="url(#paint0_radial_570_42740)"/></g><path fill-rule="evenodd" clip-rule="evenodd" d="M90 45C90 69.8528 69.8528 90 45 90C20.1472 90 0 69.8528 0 45C0 20.1472 20.1472 0 45 0C69.8528 0 90 20.1472 90 45ZM45 83.3333C66.1709 83.3333 83.3333 66.1709 83.3333 45C83.3333 23.8291 66.1709 6.66667 45 6.66667C23.8291 6.66667 6.66667 23.8291 6.66667 45C6.66667 66.1709 23.8291 83.3333 45 83.3333Z" fill="url(#paint1_radial_570_42740)" fill-opacity="0.25"/><circle opacity="0.4" cx="31.9675" cy="31.9664" r="13.0333" fill="white"/><path fill-rule="evenodd" clip-rule="evenodd" d="M59.9389 26.3649C59.0098 24.9569 57.1151 24.5686 55.7071 25.4977C54.299 26.4269 53.9108 28.3216 54.8399 29.7296C55.387 30.5587 54.6586 31.6354 53.6854 31.436L39.1554 28.4586C33.6546 27.3314 28.2816 30.8769 27.1544 36.3776L26.4406 39.8614C26.1019 41.514 27.1671 43.1283 28.8198 43.4669C30.4724 43.8056 32.0867 42.7404 32.4253 41.0878L33.1392 37.604C33.5891 35.4085 35.7335 33.9934 37.929 34.4433L52.4635 37.4217C53.431 37.6199 53.6759 38.889 52.8515 39.4329C51.4435 40.3621 51.0552 42.2567 51.9844 43.6648C52.9135 45.0729 54.8082 45.4611 56.2162 44.532L64.4728 39.0837C65.1942 38.6608 65.74 37.945 65.9211 37.0613C65.9538 36.9018 65.9734 36.7426 65.9807 36.5849C66.0103 35.9607 65.8493 35.3218 65.4788 34.7603L59.9389 26.3649ZM37.5242 47.1832C38.4533 48.5912 38.0651 50.4859 36.657 51.415C35.8295 51.9611 36.0753 53.235 37.0465 53.4341L51.5774 56.4117C53.7729 56.8615 55.9174 55.4465 56.3672 53.251L57.0811 49.7672C57.4198 48.1146 59.034 47.0494 60.6867 47.388C62.3393 47.7267 63.4045 49.341 63.0659 50.9936L62.352 54.4774C61.2248 59.9781 55.8518 63.5236 50.3511 62.3964L35.8187 59.4185C34.8493 59.2199 34.1237 60.2924 34.6687 61.1183C35.5978 62.5264 35.2095 64.4211 33.8015 65.3502C32.3934 66.2793 30.4988 65.8911 29.5696 64.483L24.0941 56.1852C23.6165 55.5178 23.4076 54.661 23.5853 53.7937C23.6931 53.2677 23.9301 52.8011 24.2565 52.4204C24.4381 52.2081 24.6521 52.0174 24.897 51.8558L33.2923 46.316C34.7004 45.3869 36.595 45.7751 37.5242 47.1832Z" fill="white"/><defs><radialGradient id="paint0_radial_570_42740" cx="0" cy="0" r="1" gradientUnits="userSpaceOnUse" gradientTransform="translate(32.734 -2.8144) rotate(68.4513) scale(104.881 187.312)"><stop stop-color="#26FF55"/><stop offset="0.523569" stop-color="#268AFF"/><stop offset="1" stop-color="#FC55FF"/></radialGradient><radialGradient id="paint1_radial_570_42740" cx="0" cy="0" r="1" gradientUnits="userSpaceOnUse" gradientTransform="translate(30.6008 -11.13) rotate(68.4513) scale(123.121 219.888)"><stop stop-color="#26FF55"/><stop offset="0.523569" stop-color="#268AFF"/><stop offset="1" stop-color="#FC55FF"/></radialGradient></defs></svg>